<svg version="1.1" xmlns="http://www.w3.org/2000/svg" viewBox="0 0 730.77734375 703.3828125" width="730.77734375" height="703.3828125">
  <!-- svg-source:excalidraw -->
  
  <defs>
    <style>
      @font-face {
        font-family: "Virgil";
        src: url("https://excalidraw.com/Virgil.woff2");
      }
      @font-face {
        font-family: "Cascadia";
        src: url("https://excalidraw.com/Cascadia.woff2");
      }
    </style>
  </defs>
  <rect x="0" y="0" width="730.77734375" height="703.3828125" fill="#ffffff"></rect><g transform="translate(260.71875 16.0703125) rotate(0 85 17.5)"><text x="0" y="NaN" font-family="Virgil, Segoe UI Emoji" font-size="28px" fill="#1e1e1e" text-anchor="start" style="white-space: pre;" direction="ltr">analyze.py</text></g><g transform="translate(160.58203125 10) rotate(0 36.16197967529297 22)"><text x="0" y="NaN" font-family="Virgil, Segoe UI Emoji" font-size="18px" fill="#757575" text-anchor="start" style="white-space: pre;" direction="ltr">the flow</text><text x="0" y="NaN" font-family="Virgil, Segoe UI Emoji" font-size="18px" fill="#757575" text-anchor="start" style="white-space: pre;" direction="ltr"></text></g><g stroke-linecap="round" transform="translate(255.71875 82.0703125) rotate(0 105 24)"><path d="M-0.8 -1.74 L209.14 1.43 L210.76 46.7 L-1.22 48.6" stroke="none" stroke-width="0" fill="#a5d8ff"></path><path d="M-1.26 -0.98 C41.16 -1.58, 82.52 -2.18, 211.43 1.04 M0.05 0.7 C54.85 1.7, 111.13 1.95, 210.23 0.23 M210.61 -1.25 C209.59 11.81, 211.67 23.32, 210.17 49.39 M210.89 -0.4 C211.18 9.27, 210.25 19.78, 209.22 47.06 M209.26 47.43 C157.32 49.28, 105.32 51.38, 1.33 46.93 M209.27 47.62 C140.94 49.34, 72.69 48.62, 0.72 48.11 M1.84 47.16 C-0.3 34.91, -1.5 23.54, 1.78 0.38 M0.65 48.99 C-0.25 34.06, -0.74 19.33, -0.68 0.96" stroke="#4a9eed" stroke-width="2" fill="none"></path></g><g transform="translate(330.3797607421875 89.0703125) rotate(0 30.3389892578125 17)"><text x="30.3389892578125" y="NaN" font-family="Virgil, Segoe UI Emoji" font-size="18px" fill="#1e1e1e" text-anchor="middle" style="white-space: pre;" direction="ltr">Photos</text></g><g stroke-linecap="round"><g transform="translate(308.71875 130.0703125) rotate(0 -89 26)"><path d="M-1.18 0.17 C-30.57 8.71, -148.22 42.28, -177.51 51.04 M0.4 -0.78 C-29 7.89, -148.62 43.48, -178.2 52.07" stroke="#8b5cf6" stroke-width="2" fill="none"></path></g><g transform="translate(308.71875 130.0703125) rotate(0 -89 26)"><path d="M-153.77 35.09 C-160.51 39.41, -162.54 40.5, -178.17 54.04 M-153.3 33.59 C-161.11 39.84, -168.28 44.45, -179.1 51.84" stroke="#8b5cf6" stroke-width="2" fill="none"></path></g><g transform="translate(308.71875 130.0703125) rotate(0 -89 26)"><path d="M-147.97 54.77 C-155.84 55.1, -159.03 52.26, -178.17 54.04 M-147.5 53.28 C-157.26 53.49, -166.21 52.07, -179.1 51.84" stroke="#8b5cf6" stroke-width="2" fill="none"></path></g></g><g stroke-linecap="round" transform="translate(15.71875 182.0703125) rotate(0 110 26)"><path d="M0.4 -1.47 L220.27 0.87 L219.52 51.4 L-0.45 51.19" stroke="none" stroke-width="0" fill="#d0bfff"></path><path d="M-0.74 -0.19 C44.08 0.44, 86.83 -0.74, 221.07 0.31 M-0.77 0.51 C71.87 0.68, 143.95 1.18, 219.58 -0.42 M219.22 -0.5 C220.71 17.24, 220.86 31.88, 218.34 52.78 M220.79 0.2 C220.91 10.78, 221.06 21.04, 219.44 51.11 M220.27 52.62 C155.47 54.51, 90.54 55.15, 0.88 51.64 M219.43 52.12 C164.21 51.91, 107.4 52.23, 0.55 51.35 M1.68 52.31 C1.9 36.15, -0.49 17.71, 1.55 -1.24 M0.31 52.99 C-0.01 31.18, -0.98 11.81, -0.36 0.93" stroke="#8b5cf6" stroke-width="2" fill="none"></path></g><g transform="translate(20.71875 192.0703125) rotate(0 105 16)"><text x="105" y="NaN" font-family="Virgil, Segoe UI Emoji" font-size="16px" fill="#1e1e1e" text-anchor="middle" style="white-space: pre;" direction="ltr">Resize + Base64</text></g><g transform="translate(10 237.7109375) rotate(0 80 9)"><text x="0" y="NaN" font-family="Virgil, Segoe UI Emoji" font-size="14px" fill="#757575" text-anchor="start" style="white-space: pre;" direction="ltr">max 1024px JPEG</text></g><g stroke-linecap="round"><g transform="translate(415.71875 130.0703125) rotate(0 89 26)"><path d="M-0.21 -0.17 C29.72 8.5, 148.86 44.08, 178.4 52.67 M-1.78 -1.31 C28.14 6.96, 147.46 41.96, 177.67 50.9" stroke="#f59e0b" stroke-width="2" fill="none"></path></g><g transform="translate(415.71875 130.0703125) rotate(0 89 26)"><path d="M147.44 53.47 C154.83 50.94, 158.66 52.52, 178.53 50.44 M147.89 53.17 C159.43 51.41, 171.99 51.54, 178.45 51.68" stroke="#f59e0b" stroke-width="2" fill="none"></path></g><g transform="translate(415.71875 130.0703125) rotate(0 89 26)"><path d="M153.24 33.78 C159.57 35.18, 162.24 40.7, 178.53 50.44 M153.68 33.49 C162.94 39.44, 173.23 47.29, 178.45 51.68" stroke="#f59e0b" stroke-width="2" fill="none"></path></g></g><g stroke-linecap="round" transform="translate(490.71875 182.0703125) rotate(0 100 26)"><path d="M2 0.22 L200.46 0.11 L200.54 52.34 L-0.74 53.32" stroke="none" stroke-width="0" fill="#ffd8a8"></path><path d="M-1.28 -0.33 C38.93 3.22, 80.38 2.38, 198.26 1.73 M0.46 -0.32 C42.16 0.45, 85.29 0.73, 199.28 0.48 M201.37 0.51 C201.19 17.8, 200.1 40.59, 199.91 53.31 M199.98 -0.99 C199.5 15.16, 199.73 28.8, 199.07 52.52 M200.48 51.88 C128.93 53.67, 58.36 52.38, 0.33 53.77 M199.61 51.61 C128.28 51.93, 57.21 53.09, 0.35 51.48 M-1.21 51.19 C-1.53 36.78, 1.15 23.92, -0.08 1.94 M-0.82 52.98 C-0.32 40.1, 0.74 27.28, -0.59 0.88" stroke="#f59e0b" stroke-width="2" fill="none"></path></g><g transform="translate(495.71875 192.0703125) rotate(0 95 16)"><text x="95" y="NaN" font-family="Virgil, Segoe UI Emoji" font-size="16px" fill="#1e1e1e" text-anchor="middle" style="white-space: pre;" direction="ltr">EXIF GPS Extract</text></g><g transform="translate(540.77734375 250.12109375) rotate(0 90 9)"><text x="0" y="NaN" font-family="Virgil, Segoe UI Emoji" font-size="14px" fill="#757575" text-anchor="start" style="white-space: pre;" direction="ltr">lat/lon from metadata</text></g><g stroke-linecap="round"><g transform="translate(125.71875 234.0703125) rotate(0 87.5 27.5)"><path d="M0.76 -0.51 C30.18 8.8, 146.37 45.58, 175.32 54.91 M-0.3 -1.83 C29.1 7.76, 145.58 47.2, 174.54 56.39" stroke="#8b5cf6" stroke-width="2" fill="none"></path></g><g transform="translate(125.71875 234.0703125) rotate(0 87.5 27.5)"><path d="M143.7 57.85 C150.4 56.06, 157.28 58.27, 176.22 57.49 M144.12 56.76 C152.6 57.76, 160.33 56.09, 174.99 56.18" stroke="#8b5cf6" stroke-width="2" fill="none"></path></g><g transform="translate(125.71875 234.0703125) rotate(0 87.5 27.5)"><path d="M150.12 38.36 C155.38 40.51, 160.97 46.61, 176.22 57.49 M150.54 37.27 C157.05 43.65, 163 47.4, 174.99 56.18" stroke="#8b5cf6" stroke-width="2" fill="none"></path></g></g><g stroke-linecap="round"><g transform="translate(590.71875 234.0703125) rotate(0 -87.5 27.5)"><path d="M-0.2 -1.2 C-29.21 8.24, -146 46.73, -175.3 55.91 M-1.76 0.79 C-30.85 9.97, -147.76 45.3, -176.41 54.27" stroke="#f59e0b" stroke-width="2" fill="none"></path></g><g transform="translate(590.71875 234.0703125) rotate(0 -87.5 27.5)"><path d="M-154.47 35.68 C-155.85 38.05, -164.01 45.16, -177.52 53.76 M-152.55 36.89 C-160.51 41.76, -166.61 47.19, -175.54 53.81" stroke="#f59e0b" stroke-width="2" fill="none"></path></g><g transform="translate(590.71875 234.0703125) rotate(0 -87.5 27.5)"><path d="M-148.45 55.3 C-150.91 53.73, -160.27 56.92, -177.52 53.76 M-146.53 56.51 C-156.25 55.45, -164.15 55.02, -175.54 53.81" stroke="#f59e0b" stroke-width="2" fill="none"></path></g></g><g stroke-linecap="round" transform="translate(145.71875 289.0703125) rotate(0 215 29)"><path d="M0 -0.68 L429.68 -0.83 L429.81 59.51 L1.88 56.99" stroke="none" stroke-width="0" fill="#b2f2bb"></path><path d="M0.44 -0.8 C85.62 2.88, 171.85 1.12, 430.05 0.97 M0.14 -0.02 C138.03 -0.95, 275.08 -1.23, 429.64 -0.37 M429.05 1.76 C429.95 13.68, 428.32 29.84, 430.86 56.96 M430.47 0.01 C430.05 12.2, 431.4 26.62, 430.1 57.28 M429.89 58.41 C328.63 60.43, 227.18 60.36, -0.23 59.01 M429.92 57.92 C327.72 57.35, 224.7 57.31, 0.04 58.32 M1.19 57.78 C-1.6 41.55, 0.41 21.65, 0.88 1.91 M-0.73 58.97 C0.81 43.31, 0.4 28.74, 0.61 0.82" stroke="#22c55e" stroke-width="2" fill="none"></path></g><g transform="translate(150.71875 299.0703125) rotate(0 210 19)"><text x="210" y="NaN" font-family="Virgil, Segoe UI Emoji" font-size="18px" fill="#1e1e1e" text-anchor="middle" style="white-space: pre;" direction="ltr">LM Studio: qwen3-vl-30b</text></g><g transform="translate(235.71875 352.0703125) rotate(0 200 9)"><text x="0" y="NaN" font-family="Virgil, Segoe UI Emoji" font-size="14px" fill="#757575" text-anchor="start" style="white-space: pre;" direction="ltr">tags + score + category + location + description</text></g><g stroke-linecap="round"><g transform="translate(360.71875 374.0703125) rotate(0 0 14)"><path d="M0.78 0.86 C0.91 5.54, -0.15 23.63, -0.39 28.15 M-0.27 0.26 C-0.23 5.15, -1.3 24.93, -1.54 29.76" stroke="#22c55e" stroke-width="2" fill="none"></path></g><g transform="translate(360.71875 374.0703125) rotate(0 0 14)"><path d="M-4.65 15.92 C-4.65 18.28, -4.05 20.91, -1.74 30.5 M-6.12 16.21 C-3.31 21.24, -1.98 26.21, -1.16 30.15" stroke="#22c55e" stroke-width="2" fill="none"></path></g><g transform="translate(360.71875 374.0703125) rotate(0 0 14)"><path d="M4.92 16.41 C3 18.74, 1.68 21.26, -1.74 30.5 M3.44 16.7 C2.57 21.62, 0.22 26.4, -1.16 30.15" stroke="#22c55e" stroke-width="2" fill="none"></path></g></g><g stroke-linecap="round" transform="translate(217.64453125 494.17578125) rotate(0 140 24)"><path d="M1.59 1.01 L279.87 -1.59 L280.82 46.45 L1.59 49.12" stroke="none" stroke-width="0" fill="#fff3bf"></path><path d="M0.22 -1.29 C57.5 -1.14, 113.09 -0.35, 280.71 -0.42 M-0.25 -0.75 C57.86 -0.85, 114.91 0.05, 280.75 0.23 M281.2 -1.24 C280.51 15.34, 277.65 32.75, 278.42 47.48 M279.66 0.81 C280.59 14.03, 280.04 29.27, 279.73 48.69 M280 47.96 C196.3 49.96, 113.25 48.18, -0.85 48.26 M280.06 47.44 C184.4 47.62, 87.62 48.26, -0.12 48.61 M-1.69 46.65 C0.06 34.99, -0.86 23.48, -0.76 1.08 M0.14 48.97 C-0.59 32.62, 1.02 18.98, 0.37 0.77" stroke="#f59e0b" stroke-width="2" fill="none"></path></g><g transform="translate(222.64453125 504.17578125) rotate(0 135 14)"><text x="135" y="NaN" font-family="Virgil, Segoe UI Emoji" font-size="16px" fill="#1e1e1e" text-anchor="middle" style="white-space: pre;" direction="ltr">Parse + Validate JSON</text></g><g stroke-linecap="round"><g transform="translate(357.64453125 542.17578125) rotate(0 0 14)"><path d="M0.31 -1.2 C0.53 3.48, 0.15 23.88, 0.14 28.77 M-0.99 0.79 C-0.81 5.07, -0.83 22.26, -0.73 27.05" stroke="#f59e0b" stroke-width="2" fill="none"></path></g><g transform="translate(357.64453125 542.17578125) rotate(0 0 14)"><path d="M-7.04 14.11 C-3.68 16.85, -3.43 18.94, -1.19 27.22 M-5.38 13.63 C-5.07 16.61, -3.43 19.89, -0.86 26.92" stroke="#f59e0b" stroke-width="2" fill="none"></path></g><g transform="translate(357.64453125 542.17578125) rotate(0 0 14)"><path d="M2.54 14.02 C3.98 16.8, 2.31 18.91, -1.19 27.22 M4.2 13.54 C2.13 16.45, 1.38 19.75, -0.86 26.92" stroke="#f59e0b" stroke-width="2" fill="none"></path></g></g><g stroke-linecap="round" transform="translate(252.64453125 570.17578125) rotate(0 105 26)"><path d="M-1.21 1.28 L211 1.84 L209.58 51.15 L-1.64 51.71" stroke="none" stroke-width="0" fill="#c3fae8"></path><path d="M0.76 -0.7 C41.11 0.64, 85.52 0.95, 210.48 -1.21 M0.64 0.73 C57.24 -0.13, 114.09 -0.6, 210.2 -0.39 M209.81 -0.49 C208.61 21.09, 211.83 41.95, 210.59 50.87 M209.55 -0.58 C210.29 15.92, 210.8 31.29, 209.95 52.75 M211.03 53.15 C138.18 54.97, 66.04 55, -1.41 52.99 M210.22 51.86 C152.46 51.82, 97.02 51.84, -0.3 51.93 M-1.85 51.81 C1.23 36.27, -0.88 21.74, -0.98 -0.53 M-0.2 52.96 C-0.34 42.06, -1.21 30.09, 0.7 0.74" stroke="#22c55e" stroke-width="2" fill="none"></path></g><g transform="translate(257.64453125 580.17578125) rotate(0 100 16)"><text x="100" y="NaN" font-family="Virgil, Segoe UI Emoji" font-size="18px" fill="#1e1e1e" text-anchor="middle" style="white-space: pre;" direction="ltr">SQLite DB</text></g><g stroke-linecap="round"><g transform="translate(312.64453125 622.17578125) rotate(0 -37.5 11)"><path d="M-0.16 -0.86 C-12.35 2.83, -62.04 17.13, -74.32 21 M-1.71 1.31 C-13.89 5.21, -62.86 18.25, -74.91 22.01" stroke="#22c55e" stroke-width="1" fill="none"></path></g><g transform="translate(312.64453125 622.17578125) rotate(0 -37.5 11)"><path d="M-52.06 5.52 C-57.33 9.79, -59.95 11.88, -75.96 21.42 M-51.2 3.73 C-58.76 10.26, -66.82 16.1, -75.84 21.07" stroke="#22c55e" stroke-width="1" fill="none"></path></g><g transform="translate(312.64453125 622.17578125) rotate(0 -37.5 11)"><path d="M-46.41 25.24 C-52.63 25.57, -56.39 23.7, -75.96 21.42 M-45.55 23.46 C-54.78 23.79, -64.6 23.46, -75.84 21.07" stroke="#22c55e" stroke-width="1" fill="none"></path></g></g><g stroke-linecap="round" transform="translate(138.49609375 661.328125) rotate(0 65 16)"><path d="M-0.01 1.54 L128.14 1.28 L128.34 31.85 L-0.86 30.31" stroke="none" stroke-width="0" fill="#c3fae8"></path><path d="M1.43 0.1 C26.02 2.29, 54.03 1.96, 130.16 1.81 M-0.22 0.61 C44.38 -0.69, 86.95 -0.93, 129.49 0.82 M128.42 0.26 C129.62 6.36, 130.91 14.18, 128.76 30.27 M129.44 0.02 C130.01 10.41, 129.6 20.52, 130.17 32.81 M128.32 30.66 C80.83 32.13, 30.04 34.54, 1.91 33.91 M130.41 32.41 C78.09 33.72, 26.47 32.93, -0.53 31.05 M1.98 32.96 C-0.53 21.94, 0.16 8.8, -1.2 1.85 M-0.55 32.96 C0.8 22.24, -0.54 12.66, -0.98 0.7" stroke="#22c55e" stroke-width="1" fill="none"></path></g><g transform="translate(143.49609375 665.328125) rotate(0 60 12)"><text x="60" y="NaN" font-family="Virgil, Segoe UI Emoji" font-size="14px" fill="#1e1e1e" text-anchor="middle" style="white-space: pre;" direction="ltr">photos</text></g><g stroke-linecap="round"><g transform="translate(402.64453125 622.17578125) rotate(0 37.5 11)"><path d="M-0.63 -0.51 C11.87 3.17, 61.27 17.78, 73.81 21.62 M1.23 -1.83 C14.19 2.07, 63.83 19.24, 75.9 22.96" stroke="#22c55e" stroke-width="1" fill="none"></path></g><g transform="translate(402.64453125 622.17578125) rotate(0 37.5 11)"><path d="M45.07 21.92 C51.29 23.27, 58.8 24.96, 74.48 21.55 M46.41 23.04 C57.08 23.61, 68.83 23.88, 76.23 23.28" stroke="#22c55e" stroke-width="1" fill="none"></path></g><g transform="translate(402.64453125 622.17578125) rotate(0 37.5 11)"><path d="M51.48 2.42 C56.34 7.64, 62.57 13.24, 74.48 21.55 M52.82 3.54 C61.04 11.44, 70.39 19.04, 76.23 23.28" stroke="#22c55e" stroke-width="1" fill="none"></path></g></g><g stroke-linecap="round" transform="translate(431.6484375 661.3828125) rotate(0 70 16)"><path d="M1.19 1.81 L139.28 0.71 L141.1 32.55 L-0.08 32.91" stroke="none" stroke-width="0" fill="#c3fae8"></path><path d="M-2 0.99 C29.06 -2.38, 54.35 0.61, 139.78 0.99 M0.84 0.41 C55 1.06, 110.82 1.11, 140.75 0.08 M141.03 1.02 C140.79 9.73, 140.16 18.62, 140.94 33.66 M139.33 0.62 C139.72 11, 140.38 19.93, 140.39 32.86 M139.48 32.02 C105.42 33.57, 71.99 34.36, 1.42 30.7 M140.58 32.98 C94.96 32.67, 48.13 33.07, -0.71 32.17 M1.82 30.12 C1.52 23.82, 1.01 16.28, -1.43 0.23 M-0.9 32.95 C-0.79 20.36, -0.62 7.12, -0.66 0.66" stroke="#22c55e" stroke-width="1" fill="none"></path></g><g transform="translate(436.6484375 665.3828125) rotate(0 65 12)"><text x="65" y="NaN" font-family="Virgil, Segoe UI Emoji" font-size="14px" fill="#1e1e1e" text-anchor="middle" style="white-space: pre;" direction="ltr">photo_tags</text></g></svg>