<svg version="1.1" xmlns="http://www.w3.org/2000/svg" viewBox="0 0 730.77734375 703.3828125" width="730.77734375" height="703.3828125"><!-- svg-source:excalidraw --><metadata></metadata><defs><style class="style-fonts">
      @font-face { font-family: Virgil; src: url(https://esm.sh/@excalidraw/excalidraw@0.18.0/dist/prod/fonts/Virgil/Virgil-Regular.woff2); }</style></defs><rect x="0" y="0" width="730.77734375" height="703.3828125" fill="#ffffff"></rect><g transform="translate(260.71875 16.0703125) rotate(0 85 17.5)"><text x="0" y="24.668" font-family="Virgil, Segoe UI Emoji" font-size="28px" fill="#1e1e1e" text-anchor="start" style="white-space: pre;" direction="ltr" dominant-baseline="alphabetic">analyze.py</text></g><g transform="translate(160.58203125 10) rotate(0 36.16197967529297 22)"><text x="0" y="15.608" font-family="Virgil, Segoe UI Emoji" font-size="18px" fill="#757575" text-anchor="start" style="white-space: pre;" direction="ltr" dominant-baseline="alphabetic">the flow</text><text x="0" y="37.608000000000004" font-family="Virgil, Segoe UI Emoji" font-size="18px" fill="#757575" text-anchor="start" style="white-space: pre;" direction="ltr" dominant-baseline="alphabetic"></text></g><g stroke-linecap="round" transform="translate(255.71875 82.0703125) rotate(0 105 24)"><path d="M12 0 C62.93 2.82, 106.37 -0.76, 198 0 C207.08 -0.94, 211.28 7.47, 210 12 C212.68 21.74, 208.49 30.29, 210 36 C210.4 46.73, 205.47 49.11, 198 48 C161.12 51.94, 121.44 48.34, 12 48 C2.25 46.86, 1.08 43.97, 0 36 C0.14 28.05, 2.89 22.61, 0 12 C-0.6 1.73, 1.82 -1.43, 12 0" stroke="none" stroke-width="0" fill="#a5d8ff"></path><path d="M12 0 C47.77 -2.24, 85.45 -1.64, 198 0 M12 0 C52.76 -1.87, 91.66 -2.21, 198 0 M198 0 C206.11 1.59, 208.64 4.88, 210 12 M198 0 C206.6 1.68, 210.6 4.59, 210 12 M210 12 C210.76 16.81, 209.44 23.81, 210 36 M210 12 C210.59 19.9, 210.83 29.92, 210 36 M210 36 C211.79 43.2, 207.45 46.84, 198 48 M210 36 C209.53 44.19, 204.21 45.83, 198 48 M198 48 C151.21 49.16, 105.2 49.22, 12 48 M198 48 C151.37 49.68, 105.23 49.75, 12 48 M12 48 C2.34 47.14, -0.53 45.58, 0 36 M12 48 C4.89 47.95, 1.88 44.29, 0 36 M0 36 C1.8 28.91, -0.26 22.91, 0 12 M0 36 C0.13 30.41, -0.22 24.98, 0 12 M0 12 C1.31 5.99, 3.35 0.08, 12 0 M0 12 C-1.86 2.39, 2.44 2.22, 12 0" stroke="#4a9eed" stroke-width="2" fill="none"></path></g><g transform="translate(330.3797607421875 89.0703125) rotate(0 30.3389892578125 17)"><text x="30.3389892578125" y="21.607999999999997" font-family="Virgil, Segoe UI Emoji" font-size="18px" fill="#1e1e1e" text-anchor="middle" style="white-space: pre;" direction="ltr" dominant-baseline="alphabetic">Photos</text></g><g stroke-linecap="round"><g transform="translate(308.71875 130.0703125) rotate(0 -89 26)"><path d="M0 0 C-35.4 9.46, -72.88 20.86, -178 52 M0 0 C-63.26 18.81, -127.46 37.62, -178 52" stroke="#8b5cf6" stroke-width="2" fill="none"></path></g><g transform="translate(308.71875 130.0703125) rotate(0 -89 26)"><path d="M-157.78 37.29 C-161.56 40.86, -167.49 44.79, -178 52 M-157.78 37.29 C-164.13 42.66, -171.53 48.04, -178 52" stroke="#8b5cf6" stroke-width="2" fill="none"></path></g><g transform="translate(308.71875 130.0703125) rotate(0 -89 26)"><path d="M-153.06 53.73 C-157.76 53.96, -164.63 54.61, -178 52 M-153.06 53.73 C-161.05 53.18, -170.15 52.65, -178 52" stroke="#8b5cf6" stroke-width="2" fill="none"></path></g></g><mask></mask><g stroke-linecap="round" transform="translate(15.71875 182.0703125) rotate(0 110 26)"><path d="M13 0 C76.62 -1.34, 136.05 -1.28, 207 0 C214.22 1.71, 218.96 7.66, 220 13 C221.33 19.99, 220.16 28.19, 220 39 C217.2 49.53, 218.2 50.62, 207 52 C165.14 52.96, 121.28 52.96, 13 52 C4.44 53.31, -1.44 51.21, 0 39 C-2.92 35.78, 2.57 26.77, 0 13 C2.4 3.39, 3.57 0.74, 13 0" stroke="none" stroke-width="0" fill="#d0bfff"></path><path d="M13 0 C50.95 -0.64, 90.69 0.56, 207 0 M13 0 C58.18 -0.92, 102.63 -1.61, 207 0 M207 0 C213.88 1.18, 219.27 4.1, 220 13 M207 0 C214.56 1.07, 218.89 3.22, 220 13 M220 13 C219.28 20.43, 220.65 30.24, 220 39 M220 13 C220.41 20.87, 220.91 29.99, 220 39 M220 39 C221.57 48.08, 216.57 51.68, 207 52 M220 39 C221.36 45.74, 214.38 49.96, 207 52 M207 52 C150.27 54.53, 93.1 54.66, 13 52 M207 52 C149.57 52.54, 92.15 52.67, 13 52 M13 52 C3.01 52.28, 0.95 48.83, 0 39 M13 52 C3.82 54.19, 1.46 45.94, 0 39 M0 39 C1.84 30.97, 1.73 23.15, 0 13 M0 39 C-0.5 33.1, 0.81 26.52, 0 13 M0 13 C0.62 6.31, 5.02 -1.85, 13 0 M0 13 C-1.42 3.41, 3.52 2.13, 13 0" stroke="#8b5cf6" stroke-width="2" fill="none"></path></g><g transform="translate(20.71875 192.0703125) rotate(0 105 16)"><text x="105" y="20.096" font-family="Virgil, Segoe UI Emoji" font-size="16px" fill="#1e1e1e" text-anchor="middle" style="white-space: pre;" direction="ltr" dominant-baseline="alphabetic">Resize + Base64</text></g><g transform="translate(10 237.7109375) rotate(0 80 9)"><text x="0" y="12.584" font-family="Virgil, Segoe UI Emoji" font-size="14px" fill="#757575" text-anchor="start" style="white-space: pre;" direction="ltr" dominant-baseline="alphabetic">max 1024px JPEG</text></g><g stroke-linecap="round"><g transform="translate(415.71875 130.0703125) rotate(0 89 26)"><path d="M0 0 C35.6 11.39, 72.61 19.59, 178 52 M0 0 C44.01 13.05, 88.33 24.91, 178 52" stroke="#f59e0b" stroke-width="2" fill="none"></path></g><g transform="translate(415.71875 130.0703125) rotate(0 89 26)"><path d="M153.05 53.5 C157.74 53.92, 164.14 51.41, 178 52 M153.05 53.5 C158.99 53.94, 165.36 52.54, 178 52" stroke="#f59e0b" stroke-width="2" fill="none"></path></g><g transform="translate(415.71875 130.0703125) rotate(0 89 26)"><path d="M157.92 37.11 C161.73 40.8, 167.15 41.57, 178 52 M157.92 37.11 C162.69 41.64, 167.85 44.29, 178 52" stroke="#f59e0b" stroke-width="2" fill="none"></path></g></g><mask></mask><g stroke-linecap="round" transform="translate(490.71875 182.0703125) rotate(0 100 26)"><path d="M13 0 C82.77 0.25, 152.76 -2.05, 187 0 C198.05 -1.95, 200.67 7.49, 200 13 C202.22 18.38, 202.67 25.78, 200 39 C202.54 48.37, 192.69 49.71, 187 52 C126.72 55.86, 63.11 51.06, 13 52 C6.91 49.39, 0 46.37, 0 39 C3.27 34.03, 0.43 26.62, 0 13 C-3.19 7.56, 7.87 -1.17, 13 0" stroke="none" stroke-width="0" fill="#ffd8a8"></path><path d="M13 0 C46.38 1.33, 81.42 3.33, 187 0 M13 0 C69.63 0.82, 125.06 1, 187 0 M187 0 C196.69 -0.71, 198.79 2.61, 200 13 M187 0 C195.35 -1.29, 198.15 5.55, 200 13 M200 13 C201.47 23.26, 201.09 30.8, 200 39 M200 13 C200.86 20.52, 200.35 27.44, 200 39 M200 39 C199.95 45.68, 194.51 52.8, 187 52 M200 39 C199.21 45.99, 193.52 53.2, 187 52 M187 52 C125.46 53.42, 63.16 53.62, 13 52 M187 52 C125.66 52.91, 62.97 52.46, 13 52 M13 52 C3.46 51.13, 0.24 46.94, 0 39 M13 52 C6.54 54.12, 0.9 46.33, 0 39 M0 39 C-1.27 31.21, -1.46 23.78, 0 13 M0 39 C1 28.91, -0.82 20.34, 0 13 M0 13 C-1.64 6.3, 2.82 0.92, 13 0 M0 13 C0.7 4.32, 2.97 2.02, 13 0" stroke="#f59e0b" stroke-width="2" fill="none"></path></g><g transform="translate(495.71875 192.0703125) rotate(0 95 16)"><text x="95" y="20.096" font-family="Virgil, Segoe UI Emoji" font-size="16px" fill="#1e1e1e" text-anchor="middle" style="white-space: pre;" direction="ltr" dominant-baseline="alphabetic">EXIF GPS Extract</text></g><g transform="translate(540.77734375 250.12109375) rotate(0 90 9)"><text x="0" y="12.584" font-family="Virgil, Segoe UI Emoji" font-size="14px" fill="#757575" text-anchor="start" style="white-space: pre;" direction="ltr" dominant-baseline="alphabetic">lat/lon from metadata</text></g><g stroke-linecap="round"><g transform="translate(125.71875 234.0703125) rotate(0 87.5 27.5)"><path d="M0 0 C33.72 10.42, 69.43 20.02, 175 55 M0 0 C59.75 16.78, 117.02 35.09, 175 55" stroke="#8b5cf6" stroke-width="2" fill="none"></path></g><g transform="translate(125.71875 234.0703125) rotate(0 87.5 27.5)"><path d="M150.01 55.63 C154.16 55.87, 159.86 54.34, 175 55 M150.01 55.63 C158.95 54.98, 165.83 54.61, 175 55" stroke="#8b5cf6" stroke-width="2" fill="none"></path></g><g transform="translate(125.71875 234.0703125) rotate(0 87.5 27.5)"><path d="M155.45 39.42 C158.38 42.94, 162.99 44.65, 175 55 M155.45 39.42 C162.69 44.26, 167.73 49.33, 175 55" stroke="#8b5cf6" stroke-width="2" fill="none"></path></g></g><mask></mask><g stroke-linecap="round"><g transform="translate(590.71875 234.0703125) rotate(0 -87.5 27.5)"><path d="M0 0 C-37.35 10.21, -68.84 20.01, -175 55 M0 0 C-36.15 10.45, -72.48 20.94, -175 55" stroke="#f59e0b" stroke-width="2" fill="none"></path></g><g transform="translate(590.71875 234.0703125) rotate(0 -87.5 27.5)"><path d="M-155.33 39.57 C-161.36 42.12, -161.77 44, -175 55 M-155.33 39.57 C-159.54 42.66, -163.57 44.92, -175 55" stroke="#f59e0b" stroke-width="2" fill="none"></path></g><g transform="translate(590.71875 234.0703125) rotate(0 -87.5 27.5)"><path d="M-150.01 55.82 C-157.01 55.11, -158.48 53.74, -175 55 M-150.01 55.82 C-155.47 55.5, -160.61 54.39, -175 55" stroke="#f59e0b" stroke-width="2" fill="none"></path></g></g><mask></mask><g stroke-linecap="round" transform="translate(145.71875 289.0703125) rotate(0 215 29)"><path d="M14.5 0 C133.86 0.45, 256.45 2.56, 415.5 0 C423.34 2.48, 429.21 7.76, 430 14.5 C428.21 26.22, 428.88 31.95, 430 43.5 C432.01 52.42, 422.51 56.36, 415.5 58 C322.87 55.47, 230.46 53.43, 14.5 58 C3.3 59.49, -1.8 53.02, 0 43.5 C2.37 36.1, 1.7 26.85, 0 14.5 C-2.99 7.87, 8.33 0.05, 14.5 0" stroke="none" stroke-width="0" fill="#b2f2bb"></path><path d="M14.5 0 C95.21 1.3, 174.5 2.99, 415.5 0 M14.5 0 C127.28 0.01, 239.31 0.16, 415.5 0 M415.5 0 C425.71 -0.06, 431.18 5.24, 430 14.5 M415.5 0 C423.55 -0.78, 428.38 3.21, 430 14.5 M430 14.5 C428.78 23.87, 430.22 28.18, 430 43.5 M430 14.5 C429.39 20.8, 430.63 27.72, 430 43.5 M430 43.5 C430.93 53.19, 424.43 56.2, 415.5 58 M430 43.5 C432.26 54.11, 425.4 56.35, 415.5 58 M415.5 58 C321.11 60.35, 226.65 60.52, 14.5 58 M415.5 58 C320.89 57.14, 225.43 57.33, 14.5 58 M14.5 58 C4.53 57.69, 1.36 53.08, 0 43.5 M14.5 58 C4.69 57.74, 0.19 54.61, 0 43.5 M0 43.5 C0.93 34.52, -1.35 27.05, 0 14.5 M0 43.5 C1.14 33.02, -0.58 23.33, 0 14.5 M0 14.5 C-1.46 6.78, 5.56 0.38, 14.5 0 M0 14.5 C-0.1 5.97, 6.24 1.89, 14.5 0" stroke="#22c55e" stroke-width="2" fill="none"></path></g><g transform="translate(150.71875 299.0703125) rotate(0 210 19)"><text x="210" y="23.607999999999997" font-family="Virgil, Segoe UI Emoji" font-size="18px" fill="#1e1e1e" text-anchor="middle" style="white-space: pre;" direction="ltr" dominant-baseline="alphabetic">LM Studio: qwen3-vl-30b</text></g><g transform="translate(235.71875 352.0703125) rotate(0 200 9)"><text x="0" y="12.584" font-family="Virgil, Segoe UI Emoji" font-size="14px" fill="#757575" text-anchor="start" style="white-space: pre;" direction="ltr" dominant-baseline="alphabetic">tags + score + category + location + description</text></g><g stroke-linecap="round"><g transform="translate(360.71875 374.0703125) rotate(0 0 14)"><path d="M0 0 C0.72 5.28, 0.13 10.67, 0 28 M0 0 C0.19 8.71, 0.37 16.96, 0 28" stroke="#22c55e" stroke-width="2" fill="none"></path></g><g transform="translate(360.71875 374.0703125) rotate(0 0 14)"><path d="M-4.51 14.75 C-3.1 17.16, -2.62 19.66, 0 28 M-4.51 14.75 C-3.03 18.97, -1.57 22.86, 0 28" stroke="#22c55e" stroke-width="2" fill="none"></path></g><g transform="translate(360.71875 374.0703125) rotate(0 0 14)"><path d="M5.07 14.95 C4.56 17.35, 3.13 19.82, 0 28 M5.07 14.95 C3.72 19.1, 2.34 22.94, 0 28" stroke="#22c55e" stroke-width="2" fill="none"></path></g></g><mask></mask><g stroke-linecap="round" transform="translate(217.64453125 494.17578125) rotate(0 140 24)"><path d="M12 0 C106.9 1.44, 204.15 2.55, 268 0 C278.01 -1.18, 280.92 6.75, 280 12 C279.02 18.51, 281.3 27.04, 280 36 C280.14 42.09, 275.03 45.44, 268 48 C174.3 43.11, 79.83 47.95, 12 48 C4.94 45.56, -0.36 46.21, 0 36 C1.38 28.05, -0.44 28.77, 0 12 C-1.39 4.01, 4.6 -1.86, 12 0" stroke="none" stroke-width="0" fill="#fff3bf"></path><path d="M12 0 C63.45 -1.05, 116 -1.22, 268 0 M12 0 C105.96 -1.71, 200.08 -0.79, 268 0 M268 0 C275.35 -1.95, 280.7 2.92, 280 12 M268 0 C275.18 1.46, 282.24 4.7, 280 12 M280 12 C281.01 18.74, 280.69 27.34, 280 36 M280 12 C279.84 16.82, 280.08 22.42, 280 36 M280 36 C279.31 45.63, 277.2 47.32, 268 48 M280 36 C280.11 45.19, 275.38 49.59, 268 48 M268 48 C191.77 49.6, 115.2 49.91, 12 48 M268 48 C191.18 47.2, 113.69 47, 12 48 M12 48 C4.15 46.54, 0.66 42.03, 0 36 M12 48 C1.98 47.67, -0.37 45.83, 0 36 M0 36 C-1.64 28.67, 0.01 22.99, 0 12 M0 36 C0.61 30.07, -0.24 23.13, 0 12 M0 12 C0.28 5.93, 2.52 -0.85, 12 0 M0 12 C2.01 6.05, 4.86 1.78, 12 0" stroke="#f59e0b" stroke-width="2" fill="none"></path></g><g transform="translate(222.64453125 504.17578125) rotate(0 135 14)"><text x="135" y="18.096" font-family="Virgil, Segoe UI Emoji" font-size="16px" fill="#1e1e1e" text-anchor="middle" style="white-space: pre;" direction="ltr" dominant-baseline="alphabetic">Parse + Validate JSON</text></g><g stroke-linecap="round"><g transform="translate(357.64453125 542.17578125) rotate(0 0 14)"><path d="M0 0 C-0.92 5.72, 0.72 11.42, 0 28 M0 0 C0.04 8.47, -0.42 17, 0 28" stroke="#f59e0b" stroke-width="2" fill="none"></path></g><g transform="translate(357.64453125 542.17578125) rotate(0 0 14)"><path d="M-5.04 14.94 C-4.69 17.63, -2.54 20.31, 0 28 M-5.04 14.94 C-3.44 18.84, -2.19 22.77, 0 28" stroke="#f59e0b" stroke-width="2" fill="none"></path></g><g transform="translate(357.64453125 542.17578125) rotate(0 0 14)"><path d="M4.53 14.75 C2.97 17.5, 3.21 20.21, 0 28 M4.53 14.75 C3.15 18.7, 1.42 22.68, 0 28" stroke="#f59e0b" stroke-width="2" fill="none"></path></g></g><mask></mask><g stroke-linecap="round" transform="translate(252.64453125 570.17578125) rotate(0 105 26)"><path d="M13 0 C60.41 -2.41, 99.66 -4.61, 197 0 C205.15 1.48, 208.6 6.95, 210 13 C207.68 23.97, 212.98 32.16, 210 39 C206.95 44.89, 207.77 54.16, 197 52 C127.32 57.76, 57.49 52.96, 13 52 C7.13 52.02, -2.88 46.24, 0 39 C-1.62 30.79, -0.69 22.97, 0 13 C1.61 5.67, 6.35 0.31, 13 0" stroke="none" stroke-width="0" fill="#c3fae8"></path><path d="M13 0 C50.68 0.2, 85.6 0.59, 197 0 M13 0 C82.95 -0.8, 154.24 0, 197 0 M197 0 C207.13 1.64, 211.34 6.14, 210 13 M197 0 C207.74 0.85, 210.53 3.33, 210 13 M210 13 C210.03 22.52, 208.39 34.09, 210 39 M210 13 C209.68 22.65, 210.17 32.21, 210 39 M210 39 C209.1 46.5, 206.32 52.15, 197 52 M210 39 C211.94 46.75, 205.55 53.72, 197 52 M197 52 C134.72 54.71, 70.79 55.16, 13 52 M197 52 C133.52 50.23, 68.7 50.05, 13 52 M13 52 C4.82 51.68, -1.87 49.27, 0 39 M13 52 C5.51 53.91, -0.79 47.48, 0 39 M0 39 C-2.1 30.75, 1.49 23.27, 0 13 M0 39 C-0.52 30.72, 0.28 24.58, 0 13 M0 13 C-0.41 6.26, 4.2 1.23, 13 0 M0 13 C-2.15 2.47, 5.93 1.69, 13 0" stroke="#22c55e" stroke-width="2" fill="none"></path></g><g transform="translate(257.64453125 580.17578125) rotate(0 100 16)"><text x="100" y="20.607999999999997" font-family="Virgil, Segoe UI Emoji" font-size="18px" fill="#1e1e1e" text-anchor="middle" style="white-space: pre;" direction="ltr" dominant-baseline="alphabetic">SQLite DB</text></g><g stroke-linecap="round"><g transform="translate(312.64453125 622.17578125) rotate(0 -37.5 11)"><path d="M0 0 C-16.64 5.43, -31.89 10.62, -75 22 M0 0 C-24.83 6.94, -49.6 13.39, -75 22" stroke="#22c55e" stroke-width="1" fill="none"></path></g><g transform="translate(312.64453125 622.17578125) rotate(0 -37.5 11)"><path d="M-55.21 6.72 C-60.74 10.89, -64.95 14.73, -75 22 M-55.21 6.72 C-61.96 11.75, -68.63 16, -75 22" stroke="#22c55e" stroke-width="1" fill="none"></path></g><g transform="translate(312.64453125 622.17578125) rotate(0 -37.5 11)"><path d="M-50.02 23.02 C-56.44 23.91, -61.68 24.49, -75 22 M-50.02 23.02 C-58.5 22.68, -66.88 21.58, -75 22" stroke="#22c55e" stroke-width="1" fill="none"></path></g></g><mask></mask><g stroke-linecap="round" transform="translate(138.49609375 661.328125) rotate(0 65 16)"><path d="M8 0 C44.45 -1.07, 76.04 0.36, 122 0 C124.3 -3.07, 133.49 5.15, 130 8 C132.8 12.37, 127.93 16.44, 130 24 C130.95 32.89, 125.3 31.67, 122 32 C76.04 34.18, 30.73 32.98, 8 32 C0.12 34.48, 1.8 31.48, 0 24 C1.97 17.33, -0.84 15.87, 0 8 C-2.59 5.33, 6.1 2.48, 8 0" stroke="none" stroke-width="0" fill="#c3fae8"></path><path d="M8 0 C32.24 1.16, 53.63 2.14, 122 0 M8 0 C54.49 0.25, 99.46 0.7, 122 0 M122 0 C126.9 1.23, 131.97 3.35, 130 8 M122 0 C127.7 0.23, 128.83 4.55, 130 8 M130 8 C128.81 12.01, 129.65 14.61, 130 24 M130 8 C129.22 13.49, 129.81 18.2, 130 24 M130 24 C128.88 29.37, 127.43 32.99, 122 32 M130 24 C129.17 30.9, 127.73 33.85, 122 32 M122 32 C75.65 31.5, 34.43 32.01, 8 32 M122 32 C77.87 34.07, 31.9 33.95, 8 32 M8 32 C3.5 32.81, -0.39 30.52, 0 24 M8 32 C2.43 31.56, -1.21 27.14, 0 24 M0 24 C1.56 18.85, -0.41 13.58, 0 8 M0 24 C0.7 18.99, -0.54 13.42, 0 8 M0 8 C-1.1 4.58, 3.88 -0.7, 8 0 M0 8 C-1.71 1.49, 0.41 1.61, 8 0" stroke="#22c55e" stroke-width="1" fill="none"></path></g><g transform="translate(143.49609375 665.328125) rotate(0 60 12)"><text x="60" y="15.584" font-family="Virgil, Segoe UI Emoji" font-size="14px" fill="#1e1e1e" text-anchor="middle" style="white-space: pre;" direction="ltr" dominant-baseline="alphabetic">photos</text></g><g stroke-linecap="round"><g transform="translate(402.64453125 622.17578125) rotate(0 37.5 11)"><path d="M0 0 C14.07 2.82, 29.3 8.61, 75 22 M0 0 C25.23 8.86, 51.55 15.32, 75 22" stroke="#22c55e" stroke-width="1" fill="none"></path></g><g transform="translate(402.64453125 622.17578125) rotate(0 37.5 11)"><path d="M50.08 23.98 C54.22 21.74, 59.43 22.72, 75 22 M50.08 23.98 C57.93 24.24, 67.04 22.45, 75 22" stroke="#22c55e" stroke-width="1" fill="none"></path></g><g transform="translate(402.64453125 622.17578125) rotate(0 37.5 11)"><path d="M54.64 7.5 C57.8 8.53, 62.09 12.81, 75 22 M54.64 7.5 C61.03 13.39, 68.57 17.27, 75 22" stroke="#22c55e" stroke-width="1" fill="none"></path></g></g><mask></mask><g stroke-linecap="round" transform="translate(431.6484375 661.3828125) rotate(0 70 16)"><path d="M8 0 C53.86 2.79, 98.17 0.66, 132 0 C138.97 -0.41, 141.17 5.01, 140 8 C141.74 15.44, 139.28 18.74, 140 24 C137.75 32.02, 138.37 29.18, 132 32 C86.5 31.68, 35.24 34.08, 8 32 C1.97 29.74, -0.72 27.85, 0 24 C-0.45 21.31, -1.07 17.18, 0 8 C0.41 -0.54, 0.32 -2.55, 8 0" stroke="none" stroke-width="0" fill="#c3fae8"></path><path d="M8 0 C30.82 0.15, 58.68 -2.27, 132 0 M8 0 C35.26 1.12, 62.13 -0.78, 132 0 M132 0 C139.01 0.82, 138.61 2.23, 140 8 M132 0 C136 -0.38, 141.72 2.85, 140 8 M140 8 C140.83 13.45, 140.63 17.64, 140 24 M140 8 C140.67 13.03, 139.86 18.18, 140 24 M140 24 C138.67 30.57, 136.89 33.83, 132 32 M140 24 C141 28.79, 138.24 33.98, 132 32 M132 32 C101.86 32.89, 71.62 33.46, 8 32 M132 32 C101.22 33.14, 72.11 33.09, 8 32 M8 32 C3.83 33.95, 1.08 30.11, 0 24 M8 32 C1.02 33.81, -1.63 29.73, 0 24 M0 24 C1.57 18.8, 1.15 15.98, 0 8 M0 24 C0.17 19.25, 0.26 13.27, 0 8 M0 8 C-1.79 4.57, 1.22 1.38, 8 0 M0 8 C-1.27 2.18, 1.15 1.53, 8 0" stroke="#22c55e" stroke-width="1" fill="none"></path></g><g transform="translate(436.6484375 665.3828125) rotate(0 65 12)"><text x="65" y="15.584" font-family="Virgil, Segoe UI Emoji" font-size="14px" fill="#1e1e1e" text-anchor="middle" style="white-space: pre;" direction="ltr" dominant-baseline="alphabetic">photo_tags</text></g></svg>