<svg version="1.1" xmlns="http://www.w3.org/2000/svg" viewBox="0 0 630 533" width="630" height="533"><!-- svg-source:excalidraw --><metadata></metadata><defs><style class="style-fonts">
      @font-face { font-family: Virgil; src: url(https://esm.sh/@excalidraw/excalidraw@0.18.0/dist/prod/fonts/Virgil/Virgil-Regular.woff2); }</style></defs><rect x="0" y="0" width="630" height="533" fill="#ffffff"></rect><g transform="translate(65 10) rotate(0 150 16)"><text x="0" y="22.656" font-family="Virgil, Segoe UI Emoji" font-size="26px" fill="#1e1e1e" text-anchor="start" style="white-space: pre;" direction="ltr" dominant-baseline="alphabetic">Composition Scores</text></g><g transform="translate(48 44) rotate(0 185 10)"><text x="0" y="14.096" font-family="Virgil, Segoe UI Emoji" font-size="16px" fill="#757575" text-anchor="start" style="white-space: pre;" direction="ltr" dominant-baseline="alphabetic">85 photos — 7-point scale (Steph Ango)</text></g><g transform="translate(15 90) rotate(0 8 12.5)"><text x="16" y="17.619999999999997" font-family="Virgil, Segoe UI Emoji" font-size="20px" fill="#1e1e1e" text-anchor="end" style="white-space: pre;" direction="ltr" dominant-baseline="alphabetic">8</text></g><g stroke-linecap="round" transform="translate(50 82) rotate(0 200 19)"><path d="M9.5 0 C117.5 2.67, 221.67 5.56, 390.5 0 C397.07 -0.06, 398.11 6.59, 400 9.5 C397.07 12.72, 398.61 20.12, 400 28.5 C401.74 37.27, 394.92 40.68, 390.5 38 C259.35 33.87, 129.55 35.31, 9.5 38 C2.04 37.68, -2.16 33.59, 0 28.5 C1.98 22.51, 0.89 16.27, 0 9.5 C-2 3.74, 3.86 1.69, 9.5 0" stroke="none" stroke-width="0" fill="#b2f2bb"></path><path d="M9.5 0 C86.56 1.54, 162.35 -0.37, 390.5 0 M9.5 0 C119.09 1.25, 228.99 1.77, 390.5 0 M390.5 0 C397.64 0.12, 401.52 3.68, 400 9.5 M390.5 0 C395.33 -0.05, 401.56 3.19, 400 9.5 M400 9.5 C399.98 13.68, 398.31 18.74, 400 28.5 M400 9.5 C399.24 16.05, 400.19 23.71, 400 28.5 M400 28.5 C400.38 34.44, 396.77 37.12, 390.5 38 M400 28.5 C400.14 32.78, 398.28 38.94, 390.5 38 M390.5 38 C289.34 40.87, 189.21 40.92, 9.5 38 M390.5 38 C290.31 39.56, 189.91 39.21, 9.5 38 M9.5 38 C1.62 38.85, 1.3 34.94, 0 28.5 M9.5 38 C3.59 40.23, 1.74 32.92, 0 28.5 M0 28.5 C-0.82 22.73, -0.89 15.2, 0 9.5 M0 28.5 C0.68 22.27, -0.39 17.18, 0 9.5 M0 9.5 C-0.26 5.15, 2.96 0.77, 9.5 0 M0 9.5 C-0.18 1.78, 4.92 2.19, 9.5 0" stroke="#22c55e" stroke-width="2" fill="none"></path></g><g transform="translate(55 88) rotate(0 195 13)"><text x="195" y="17.096" font-family="Virgil, Segoe UI Emoji" font-size="16px" fill="#1e1e1e" text-anchor="middle" style="white-space: pre;" direction="ltr" dominant-baseline="alphabetic">53 photos</text></g><g transform="translate(458 88) rotate(0 50 9)"><text x="0" y="12.584" font-family="Virgil, Segoe UI Emoji" font-size="14px" fill="#ef4444" text-anchor="start" style="white-space: pre;" direction="ltr" dominant-baseline="alphabetic">above scale</text></g><g transform="translate(15 140) rotate(0 8 12.5)"><text x="16" y="17.619999999999997" font-family="Virgil, Segoe UI Emoji" font-size="20px" fill="#1e1e1e" text-anchor="end" style="white-space: pre;" direction="ltr" dominant-baseline="alphabetic">7</text></g><g stroke-linecap="round" transform="translate(50 132) rotate(0 102 19)"><path d="M9.5 0 C76.96 2.78, 142.42 5.25, 194.5 0 C197.7 3.48, 203.82 6.41, 204 9.5 C201.9 11.75, 204.98 18.95, 204 28.5 C203.87 36.11, 200.62 39.77, 194.5 38 C142.44 37.1, 91.31 34.7, 9.5 38 C4.51 40.95, -0.72 35.95, 0 28.5 C0.19 20.69, -1.98 15.82, 0 9.5 C-0.4 0.71, 0.95 -0.21, 9.5 0" stroke="none" stroke-width="0" fill="#a5d8ff"></path><path d="M9.5 0 C47.36 0.56, 82.96 -1.84, 194.5 0 M9.5 0 C79.62 1.03, 147.78 0.78, 194.5 0 M194.5 0 C200.45 -1.77, 205.03 2.19, 204 9.5 M194.5 0 C200.12 2.19, 204.82 0.92, 204 9.5 M204 9.5 C202.25 15.96, 202.72 22.27, 204 28.5 M204 9.5 C203.63 15.96, 203.63 21.77, 204 28.5 M204 28.5 C202.76 36.04, 202.71 38.24, 194.5 38 M204 28.5 C201.99 33.04, 201.42 37.58, 194.5 38 M194.5 38 C132.73 39.98, 72.35 40.15, 9.5 38 M194.5 38 C133.47 37.71, 72.78 38.56, 9.5 38 M9.5 38 C2.07 37.7, 0.59 33.05, 0 28.5 M9.5 38 C1.71 40.16, 1.18 33.3, 0 28.5 M0 28.5 C0.07 22.67, -0.07 18.99, 0 9.5 M0 28.5 C0.22 24.58, -0.02 20.11, 0 9.5 M0 9.5 C1.49 5.14, 4.75 -0.46, 9.5 0 M0 9.5 C1.94 2.7, 4.38 2.08, 9.5 0" stroke="#4a9eed" stroke-width="2" fill="none"></path></g><g transform="translate(55 138) rotate(0 97 13)"><text x="97" y="17.096" font-family="Virgil, Segoe UI Emoji" font-size="16px" fill="#1e1e1e" text-anchor="middle" style="white-space: pre;" direction="ltr" dominant-baseline="alphabetic">27 photos</text></g><g transform="translate(262 140) rotate(0 30 9)"><text x="0" y="12.584" font-family="Virgil, Segoe UI Emoji" font-size="14px" fill="#4a9eed" text-anchor="start" style="white-space: pre;" direction="ltr" dominant-baseline="alphabetic">Perfect</text></g><g transform="translate(15 190) rotate(0 8 12.5)"><text x="16" y="17.619999999999997" font-family="Virgil, Segoe UI Emoji" font-size="20px" fill="#1e1e1e" text-anchor="end" style="white-space: pre;" direction="ltr" dominant-baseline="alphabetic">6</text></g><g stroke-linecap="round" transform="translate(50 182) rotate(0 15 19)"><path d="M7.5 0 C10.74 1.61, 15.79 1.69, 22.5 0 C28.2 -0.18, 31.53 5.56, 30 7.5 C28.63 13.77, 26.29 18.85, 30 30.5 C28.01 35.62, 28.97 38.85, 22.5 38 C20.89 35.38, 13.56 35.38, 7.5 38 C-0.88 37.03, 0.72 38.98, 0 30.5 C-1.72 26.62, 2.06 14.76, 0 7.5 C1.21 4.21, 4.58 -2.12, 7.5 0" stroke="none" stroke-width="0" fill="#ffd8a8"></path><path d="M7.5 0 C10.72 1.26, 12.12 0.05, 22.5 0 M7.5 0 C10.97 -0.36, 15.61 0.1, 22.5 0 M22.5 0 C25.93 0.35, 30.55 4.03, 30 7.5 M22.5 0 C27.58 -0.16, 30.08 2.58, 30 7.5 M30 7.5 C30.32 13.34, 29.06 17.92, 30 30.5 M30 7.5 C29.59 13.02, 30.58 20.03, 30 30.5 M30 30.5 C31.14 34.32, 27.31 39.36, 22.5 38 M30 30.5 C30.43 33.95, 27.23 36.22, 22.5 38 M22.5 38 C15.65 37.71, 9.63 37.89, 7.5 38 M22.5 38 C17.09 38.08, 10.92 38.28, 7.5 38 M7.5 38 C1.86 36.55, -0.11 35.83, 0 30.5 M7.5 38 C3.77 40.09, 0.62 34.35, 0 30.5 M0 30.5 C1.42 23.56, 1.2 19.04, 0 7.5 M0 30.5 C-0.25 23.86, 0.36 16.85, 0 7.5 M0 7.5 C-0.77 4.46, 1.88 -1.69, 7.5 0 M0 7.5 C-0.54 2.95, 3.16 1.97, 7.5 0" stroke="#f59e0b" stroke-width="2" fill="none"></path></g><g transform="translate(88 190) rotate(0 6 10)"><text x="0" y="14.096" font-family="Virgil, Segoe UI Emoji" font-size="16px" fill="#1e1e1e" text-anchor="start" style="white-space: pre;" direction="ltr" dominant-baseline="alphabetic">2</text></g><g transform="translate(110 192) rotate(0 35 9)"><text x="0" y="12.584" font-family="Virgil, Segoe UI Emoji" font-size="14px" fill="#f59e0b" text-anchor="start" style="white-space: pre;" direction="ltr" dominant-baseline="alphabetic">Excellent</text></g><g transform="translate(15 240) rotate(0 8 12.5)"><text x="16" y="17.619999999999997" font-family="Virgil, Segoe UI Emoji" font-size="20px" fill="#1e1e1e" text-anchor="end" style="white-space: pre;" direction="ltr" dominant-baseline="alphabetic">5</text></g><g stroke-linecap="round" transform="translate(50 232) rotate(0 17.5 19)"><path d="M8.75 0 C12.73 -2.86, 22.69 1.47, 26.25 0 C29.42 3.37, 38.24 5.8, 35 8.75 C34.54 13.19, 33.81 17.26, 35 29.25 C38.34 34.05, 35.25 37.93, 26.25 38 C17.32 37.18, 13.17 39.28, 8.75 38 C2 40.31, 2.16 33.72, 0 29.25 C-2.84 24.27, -0.19 14.66, 0 8.75 C2.81 1.6, 2.09 3.17, 8.75 0" stroke="none" stroke-width="0" fill="#ffd8a8"></path><path d="M8.75 0 C12 1.2, 16.53 0.49, 26.25 0 M8.75 0 C15.03 0.25, 20.5 -0.19, 26.25 0 M26.25 0 C33.33 -1.53, 35.06 2.96, 35 8.75 M26.25 0 C32.96 2.08, 34.34 0.72, 35 8.75 M35 8.75 C33.51 12.5, 34.5 21.92, 35 29.25 M35 8.75 C35.02 13.46, 35.01 17.82, 35 29.25 M35 29.25 C34.53 35.51, 33.83 36.48, 26.25 38 M35 29.25 C33.27 33.79, 30.96 39.46, 26.25 38 M26.25 38 C20.85 36.91, 16.15 37.19, 8.75 38 M26.25 38 C21.62 37.2, 16.7 38.67, 8.75 38 M8.75 38 C2.73 39.4, -0.81 33.53, 0 29.25 M8.75 38 C2.31 40.02, 0.05 34.32, 0 29.25 M0 29.25 C-1.66 22.77, -1.95 14.85, 0 8.75 M0 29.25 C-0.74 23.89, 0.75 20.36, 0 8.75 M0 8.75 C0.97 4.86, 4.09 1.07, 8.75 0 M0 8.75 C1.57 4.28, 3.04 1.86, 8.75 0" stroke="#f59e0b" stroke-width="2" fill="none"></path></g><g transform="translate(93 240) rotate(0 6 10)"><text x="0" y="14.096" font-family="Virgil, Segoe UI Emoji" font-size="16px" fill="#1e1e1e" text-anchor="start" style="white-space: pre;" direction="ltr" dominant-baseline="alphabetic">3</text></g><g transform="translate(115 242) rotate(0 20 9)"><text x="0" y="12.584" font-family="Virgil, Segoe UI Emoji" font-size="14px" fill="#f59e0b" text-anchor="start" style="white-space: pre;" direction="ltr" dominant-baseline="alphabetic">Good</text></g><g transform="translate(15 290) rotate(0 8 12.5)"><text x="16" y="17.619999999999997" font-family="Virgil, Segoe UI Emoji" font-size="20px" fill="#1e1e1e" text-anchor="end" style="white-space: pre;" direction="ltr" dominant-baseline="alphabetic">4</text></g><g stroke-linecap="round" transform="translate(50 282) rotate(0 11 19)"><path d="M5.5 0 C8.13 -0.81, 12.99 0.61, 16.5 0 C21.34 -0.29, 19.75 4.54, 22 5.5 C22.36 14.98, 23.25 24.88, 22 32.5 C23.48 33.97, 17.82 37.01, 16.5 38 C12.62 38.89, 11.01 37.57, 5.5 38 C3.39 36.38, 3.6 37.16, 0 32.5 C2.48 23.9, -3.22 21.22, 0 5.5 C-2.79 4.68, 5.3 1.26, 5.5 0" stroke="none" stroke-width="0" fill="#ffc9c9"></path><path d="M5.5 0 C7.23 0.81, 9.68 0.8, 16.5 0 M5.5 0 C8.65 -0.3, 11.02 -0.1, 16.5 0 M16.5 0 C20.22 0.58, 21.58 0.38, 22 5.5 M16.5 0 C21.84 -0.27, 20.6 1.96, 22 5.5 M22 5.5 C22.67 13.96, 21.91 23.01, 22 32.5 M22 5.5 C22.47 16.72, 21.46 25.77, 22 32.5 M22 32.5 C23.91 34.2, 19.85 37.6, 16.5 38 M22 32.5 C22.72 35.12, 18.18 38.1, 16.5 38 M16.5 38 C12.53 39.04, 8.84 37.06, 5.5 38 M16.5 38 C13.55 38.03, 9.68 37.54, 5.5 38 M5.5 38 C2.1 38.25, -1.51 36.72, 0 32.5 M5.5 38 C3.95 39.95, -0.51 35.79, 0 32.5 M0 32.5 C-0.28 23.79, -0.65 13.78, 0 5.5 M0 32.5 C0.72 23.39, -0.91 14.32, 0 5.5 M0 5.5 C-1.28 3.76, 0.8 -0.16, 5.5 0 M0 5.5 C-0.91 4.11, 1.41 1.75, 5.5 0" stroke="#ef4444" stroke-width="2" fill="none"></path></g><g transform="translate(80 290) rotate(0 6 10)"><text x="0" y="14.096" font-family="Virgil, Segoe UI Emoji" font-size="16px" fill="#1e1e1e" text-anchor="start" style="white-space: pre;" direction="ltr" dominant-baseline="alphabetic">1</text></g><g transform="translate(102 292) rotate(0 35 9)"><text x="0" y="12.584" font-family="Virgil, Segoe UI Emoji" font-size="14px" fill="#ef4444" text-anchor="start" style="white-space: pre;" direction="ltr" dominant-baseline="alphabetic">Passable</text></g><g stroke-opacity="0.6" fill-opacity="0.6" stroke-linecap="round" transform="translate(10 350) rotate(0 265 32.5)"><path d="M16.25 0 C146.63 1.25, 274.15 0.85, 513.75 0 C523.23 2.36, 532.63 7.99, 530 16.25 C528.9 23.75, 532.8 34.09, 530 48.75 C528.28 56.52, 525.31 61.53, 513.75 65 C355.97 62.77, 200.18 63.25, 16.25 65 C8.83 65.84, 1.08 56.95, 0 48.75 C-0.54 38.04, -3.49 24.96, 0 16.25 C0.21 2.4, 3.11 3.43, 16.25 0" stroke="none" stroke-width="0" fill="#fff3bf"></path><path d="M16.25 0 C115.69 -2.07, 215.61 -1.83, 513.75 0 M16.25 0 C143.75 -1.79, 271.13 -1.78, 513.75 0 M513.75 0 C522.74 0.17, 530.21 6.85, 530 16.25 M513.75 0 C524.55 -0.89, 531.5 3.84, 530 16.25 M530 16.25 C529.14 22.6, 531.07 29.71, 530 48.75 M530 16.25 C529.72 28.65, 528.96 39.99, 530 48.75 M530 48.75 C531.69 58.82, 523.72 65.43, 513.75 65 M530 48.75 C527.95 61.03, 523.11 65.23, 513.75 65 M513.75 65 C334.5 66.15, 154.96 66.34, 16.25 65 M513.75 65 C332.47 63.01, 151.92 63.48, 16.25 65 M16.25 65 C6.02 66.39, -0.04 59.72, 0 48.75 M16.25 65 C6.12 64.6, -0.93 61.8, 0 48.75 M0 48.75 C-0.8 37.39, 0.77 23.82, 0 16.25 M0 48.75 C0.11 37.79, 0.13 26.04, 0 16.25 M0 16.25 C-1.97 7.33, 5.73 1.92, 16.25 0 M0 16.25 C-0.47 3.78, 5.73 1.67, 16.25 0" stroke="#f59e0b" stroke-width="1" fill="none"></path></g><g transform="translate(28 358) rotate(0 225 10)"><text x="0" y="14.096" font-family="Virgil, Segoe UI Emoji" font-size="16px" fill="#1e1e1e" text-anchor="start" style="white-space: pre;" direction="ltr" dominant-baseline="alphabetic">Issue: Model exceeded 1-7 cap (62% scored 8)</text></g><g transform="translate(28 384) rotate(0 225 9)"><text x="0" y="12.584" font-family="Virgil, Segoe UI Emoji" font-size="14px" fill="#757575" text-anchor="start" style="white-space: pre;" direction="ltr" dominant-baseline="alphabetic">Validation should clamp to 7 — cached script skipped fix</text></g><g transform="translate(10 440) rotate(0 60 14)"><text x="0" y="19.631999999999998" font-family="Virgil, Segoe UI Emoji" font-size="22px" fill="#1e1e1e" text-anchor="start" style="white-space: pre;" direction="ltr" dominant-baseline="alphabetic">Categories</text></g><g stroke-linecap="round" transform="translate(10 475) rotate(0 60 24)"><path d="M12 0 C46.22 -2.27, 77.78 1.58, 108 0 C118.48 -1.3, 117.14 6.39, 120 12 C119.92 20.49, 118.24 32.61, 120 36 C116.42 46.97, 118.41 50.81, 108 48 C82.37 49.68, 60.32 46.08, 12 48 C2.69 44.92, 2.52 43.73, 0 36 C-2.47 26.84, 0.64 18.66, 0 12 C1.81 5.15, 5.98 1.53, 12 0" stroke="none" stroke-width="0" fill="#a5d8ff"></path><path d="M12 0 C30.36 -1.47, 49.79 -0.09, 108 0 M12 0 C44.3 1.45, 77.85 0.34, 108 0 M108 0 C116.97 -1.71, 119.73 3.94, 120 12 M108 0 C116.76 1.35, 120.76 4.75, 120 12 M120 12 C121.38 19.31, 121.56 26.3, 120 36 M120 12 C120.23 19.08, 120.46 27.27, 120 36 M120 36 C120.07 44.84, 117.07 49.55, 108 48 M120 36 C120.39 45.7, 118.27 46.87, 108 48 M108 48 C87 46.92, 64.98 47.47, 12 48 M108 48 C86.75 49.26, 63.99 47.85, 12 48 M12 48 C5.05 48.24, -0.75 42.25, 0 36 M12 48 C2.83 47.53, -1.49 42, 0 36 M0 36 C0.64 28.15, -1.86 18.23, 0 12 M0 36 C-0.39 28.9, 0.51 23.21, 0 12 M0 12 C-0.23 5.9, 2.11 0.69, 12 0 M0 12 C1.65 3.28, 3.77 1.56, 12 0" stroke="#4a9eed" stroke-width="2" fill="none"></path></g><g transform="translate(15 485) rotate(0 55 14)"><text x="55" y="18.096" font-family="Virgil, Segoe UI Emoji" font-size="16px" fill="#1e1e1e" text-anchor="middle" style="white-space: pre;" direction="ltr" dominant-baseline="alphabetic">street 25</text></g><g stroke-linecap="round" transform="translate(140 475) rotate(0 60 24)"><path d="M12 0 C49.37 0.29, 86.29 -0.64, 108 0 C116.8 0.47, 117.99 6.3, 120 12 C117.2 17.38, 119.93 23.2, 120 36 C119.08 46.39, 115.66 46.75, 108 48 C76.56 45.59, 44.43 46.8, 12 48 C3.92 46.55, 3.24 41.31, 0 36 C0.6 31.94, 3.14 23.33, 0 12 C-0.99 3.63, 4.53 0.57, 12 0" stroke="none" stroke-width="0" fill="#d0bfff"></path><path d="M12 0 C32.07 0.07, 49.15 1.85, 108 0 M12 0 C39.32 -1.28, 66.64 0.05, 108 0 M108 0 C114.38 -0.65, 121.49 3.19, 120 12 M108 0 C117.16 -2.12, 118.09 3.61, 120 12 M120 12 C120.71 20.65, 120.01 26.44, 120 36 M120 12 C119.44 19.94, 119.18 27.08, 120 36 M120 36 C121.27 45.64, 114.04 46.11, 108 48 M120 36 C121.61 45.82, 115.54 48.49, 108 48 M108 48 C82.1 50.47, 61.02 47.06, 12 48 M108 48 C83.31 48.62, 57.44 47.92, 12 48 M12 48 C5.28 47.66, -1.1 43.3, 0 36 M12 48 C1.89 47.49, -1.77 42.19, 0 36 M0 36 C-0.67 28.22, 0.79 20.44, 0 12 M0 36 C0.37 31.31, -0.3 26.13, 0 12 M0 12 C0.64 5.9, 3.01 -1.93, 12 0 M0 12 C0.41 3.74, 5.8 1.5, 12 0" stroke="#8b5cf6" stroke-width="2" fill="none"></path></g><g transform="translate(145 485) rotate(0 55 14)"><text x="55" y="18.096" font-family="Virgil, Segoe UI Emoji" font-size="16px" fill="#1e1e1e" text-anchor="middle" style="white-space: pre;" direction="ltr" dominant-baseline="alphabetic">arch 20</text></g><g stroke-linecap="round" transform="translate(270 475) rotate(0 55 24)"><path d="M12 0 C31.13 -0.56, 52.02 0.93, 98 0 C105.11 2.25, 108.85 6.21, 110 12 C110.81 19.08, 110.75 23.4, 110 36 C111.75 45.81, 102.9 49.89, 98 48 C64.74 45.31, 26.51 44.11, 12 48 C5.16 48.19, -3.24 46.09, 0 36 C3.67 25.04, -1.56 18.4, 0 12 C3.42 2.12, 3.08 -0.38, 12 0" stroke="none" stroke-width="0" fill="#ffd8a8"></path><path d="M12 0 C27.79 1.64, 44.51 -0.18, 98 0 M12 0 C32.02 -0.12, 52.79 -0.36, 98 0 M98 0 C105.78 0.41, 109.25 2.45, 110 12 M98 0 C107.56 -1, 110.02 2.48, 110 12 M110 12 C109.56 21.99, 107.99 26.58, 110 36 M110 12 C110.66 18.81, 109.89 24.89, 110 36 M110 36 C108.46 42.45, 105.01 46.67, 98 48 M110 36 C108.23 45.95, 107.41 50.11, 98 48 M98 48 C74.05 49.96, 48.78 46.59, 12 48 M98 48 C72.77 47.93, 48.7 47.95, 12 48 M12 48 C5.51 47.09, -1.45 44.36, 0 36 M12 48 C5.55 47.45, -2.05 42.38, 0 36 M0 36 C1.54 28.29, -1.04 22.65, 0 12 M0 36 C-0.88 26.91, -1.12 17.44, 0 12 M0 12 C1.51 5.89, 3.9 -0.54, 12 0 M0 12 C-0.83 4.2, 3.22 1.45, 12 0" stroke="#f59e0b" stroke-width="2" fill="none"></path></g><g transform="translate(275 485) rotate(0 50 14)"><text x="50" y="18.096" font-family="Virgil, Segoe UI Emoji" font-size="16px" fill="#1e1e1e" text-anchor="middle" style="white-space: pre;" direction="ltr" dominant-baseline="alphabetic">urban 15</text></g><g stroke-linecap="round" transform="translate(390 475) rotate(0 60 24)"><path d="M12 0 C36.49 1.96, 64.93 -1.33, 108 0 C113.43 -3.18, 119.7 6.12, 120 12 C118.08 20.78, 122.43 30.79, 120 36 C117.22 45.24, 117.35 45.83, 108 48 C84.15 48.36, 58.26 51.96, 12 48 C6.39 49.83, -2.52 43.67, 0 36 C-1.32 30.14, 0.08 23.07, 0 12 C0.62 0.6, 1.62 -1.33, 12 0" stroke="none" stroke-width="0" fill="#b2f2bb"></path><path d="M12 0 C31.5 -0.85, 51.88 -2.28, 108 0 M12 0 C48.55 -0.82, 84.62 -0.62, 108 0 M108 0 C117.19 1.46, 121 5.7, 120 12 M108 0 C117.96 0.12, 121.95 5.94, 120 12 M120 12 C118.89 19.33, 120.45 30.72, 120 36 M120 12 C119.88 17.67, 120.61 24.7, 120 36 M120 36 C119.65 43.25, 115.97 47.23, 108 48 M120 36 C119.46 46.07, 114.68 47.14, 108 48 M108 48 C76.29 49.58, 45.1 50.25, 12 48 M108 48 C76.42 47.34, 46.34 48.07, 12 48 M12 48 C5.73 46.51, -1.8 45.41, 0 36 M12 48 C4.61 47.42, 2.27 42.58, 0 36 M0 36 C0.23 28.36, 1.62 24.86, 0 12 M0 36 C-0.13 27.32, 0.07 20.36, 0 12 M0 12 C-1.61 5.88, 4.8 0.84, 12 0 M0 12 C-2.07 4.65, 5.25 1.39, 12 0" stroke="#22c55e" stroke-width="2" fill="none"></path></g><g transform="translate(395 485) rotate(0 55 14)"><text x="55" y="18.096" font-family="Virgil, Segoe UI Emoji" font-size="16px" fill="#1e1e1e" text-anchor="middle" style="white-space: pre;" direction="ltr" dominant-baseline="alphabetic">land 14</text></g><g stroke-linecap="round" transform="translate(520 475) rotate(0 50 24)"><path d="M12 0 C33.65 1.18, 54.26 0.3, 88 0 C98.95 -1.41, 100.56 6.03, 100 12 C101.69 22.47, 103.25 30.98, 100 36 C99.89 44.66, 94.59 48.98, 88 48 C65.13 48.07, 35.96 49.27, 12 48 C0.43 51.47, -1.8 41.25, 0 36 C1.75 30.44, 2.58 18.14, 0 12 C-2.18 6.29, 7.37 -2.29, 12 0" stroke="none" stroke-width="0" fill="#c3fae8"></path><path d="M12 0 C25.22 2.43, 43.23 1.4, 88 0 M12 0 C37.17 0.39, 60.62 -0.98, 88 0 M88 0 C94.59 -1.48, 98.76 4.96, 100 12 M88 0 C93.75 1.24, 99.28 4.8, 100 12 M100 12 C101.75 15.87, 98.42 21.26, 100 36 M100 12 C100.61 18.54, 98.85 22.52, 100 36 M100 36 C100.84 44.05, 96.94 47.79, 88 48 M100 36 C100.68 46.2, 96.55 48.76, 88 48 M88 48 C62.36 49, 35.09 49.72, 12 48 M88 48 C62.06 48.67, 33.94 48.11, 12 48 M12 48 C5.96 49.94, 1.85 42.47, 0 36 M12 48 C3.67 47.38, 1.99 42.77, 0 36 M0 36 C-1.08 28.43, 0.27 23.07, 0 12 M0 36 C1.1 29.73, -0.26 23.28, 0 12 M0 12 C-0.74 5.88, 5.7 -1.78, 12 0 M0 12 C1.29 5.11, 2.68 1.34, 12 0" stroke="#22c55e" stroke-width="1" fill="none"></path></g><g transform="translate(525 485) rotate(0 45 14)"><text x="45" y="18.096" font-family="Virgil, Segoe UI Emoji" font-size="16px" fill="#1e1e1e" text-anchor="middle" style="white-space: pre;" direction="ltr" dominant-baseline="alphabetic">other 11</text></g></svg>